<svg width="1000" height="254" viewBox="0 0 1000 254" fill="none" xmlns="http://www.w3.org/2000/svg">
<g clip-path="url(#clip0_43_2)">
<path d="M372.492 142.062H434.42C434.42 148.43 434.155 154.215 433.624 159.415C433.094 164.616 432.032 169.445 430.44 173.902C428.212 180.164 425.187 185.736 421.366 190.618C417.545 195.394 413.035 199.427 407.834 202.717C402.74 205.901 397.115 208.342 390.959 210.041C384.803 211.739 378.329 212.588 371.536 212.588C362.197 212.588 353.653 211.049 345.905 207.971C338.264 204.893 331.683 200.595 326.165 195.076C320.646 189.451 316.347 182.764 313.269 175.017C310.191 167.163 308.653 158.513 308.653 149.067C308.653 139.727 310.138 131.184 313.11 123.436C316.188 115.582 320.486 108.896 326.005 103.377C331.63 97.8578 338.37 93.5594 346.224 90.4815C354.078 87.4037 362.834 85.8647 372.492 85.8647C385.015 85.8647 396 88.5711 405.446 93.9839C414.892 99.3967 422.374 107.781 427.893 119.137L398.282 131.396C395.523 124.816 391.914 120.093 387.456 117.227C383.105 114.362 378.117 112.929 372.492 112.929C367.822 112.929 363.576 113.831 359.756 115.635C355.935 117.333 352.645 119.827 349.885 123.117C347.232 126.301 345.109 130.175 343.517 134.739C342.031 139.303 341.288 144.397 341.288 150.022C341.288 155.117 341.925 159.84 343.199 164.191C344.579 168.543 346.595 172.31 349.248 175.494C351.902 178.678 355.192 181.172 359.119 182.977C363.046 184.675 367.61 185.524 372.81 185.524C375.888 185.524 378.86 185.205 381.725 184.569C384.591 183.826 387.138 182.711 389.367 181.225C391.702 179.633 393.612 177.617 395.098 175.176C396.584 172.735 397.592 169.763 398.123 166.261H372.492V142.062ZM485.346 89.2079V209.245H454.143V89.2079H485.346ZM555.953 115.635V209.245H524.75V115.635H499.119V89.2079H581.585V115.635H555.953Z" fill="#9ABAFA"/>
<path d="M631.86 144.673H642.208C653.67 144.673 659.402 139.685 659.402 129.708C659.402 119.732 653.67 114.743 642.208 114.743H631.86V144.673ZM631.86 209.626H600.657V89.5898H650.327C663.806 89.5898 674.101 93.0922 681.212 100.097C688.429 107.102 692.038 116.972 692.038 129.708C692.038 142.444 688.429 152.315 681.212 159.319C674.101 166.324 663.806 169.826 650.327 169.826H631.86V209.626ZM767.139 165.05L753.129 125.091L739.12 165.05H767.139ZM775.417 188.771H730.841L723.677 209.626H690.405L736.095 89.5898H770.164L815.854 209.626H782.581L775.417 188.771ZM860.71 89.5898V209.626H829.507V89.5898H860.71ZM916.99 183.199H924.153C929.566 183.199 934.395 182.35 938.641 180.652C942.886 178.954 946.441 176.619 949.307 173.647C952.279 170.676 954.508 167.173 955.993 163.14C957.585 159.001 958.381 154.49 958.381 149.608C958.381 144.832 957.585 140.375 955.993 136.235C954.401 132.096 952.12 128.541 949.148 125.569C946.282 122.597 942.727 120.262 938.481 118.564C934.236 116.866 929.46 116.017 924.153 116.017H916.99V183.199ZM885.786 89.5898H931.954C940.127 89.5898 947.768 91.2348 954.879 94.5249C962.096 97.8151 968.358 102.22 973.665 107.739C979.077 113.151 983.323 119.519 986.401 126.843C989.479 134.06 991.017 141.648 991.017 149.608C991.017 157.462 989.479 165.05 986.401 172.374C983.429 179.591 979.237 185.959 973.824 191.478C968.517 196.997 962.255 201.401 955.038 204.691C947.927 207.981 940.233 209.626 931.954 209.626H885.786V89.5898Z" fill="#9ABAFA"/>
<path fill-rule="evenodd" clip-rule="evenodd" d="M145.736 0.964554C194.111 2.08692 216.723 40.4765 212.914 77.7461C210.643 99.965 190.931 106.525 210.641 121.705C212.876 123.427 188.739 156.393 145.988 155.573C103.576 154.76 67.8319 124.151 71.1935 121.822C96.6857 104.161 76.2922 94.817 75.1683 76.1036C72.3816 29.7198 102.475 -0.0389271 145.736 0.964554Z" fill="#9ABAFA"/>
<path fill-rule="evenodd" clip-rule="evenodd" d="M247.254 114.704C266.878 131.247 264.032 150.806 264.032 150.806C264.032 150.806 280.462 144.097 286.597 151.516C291.385 157.306 282.6 170.078 268.582 169.365C244.432 168.137 232.655 141.522 232.655 141.522L234.989 177.637C234.989 177.637 252.486 170.158 261.415 177.894C269.953 185.292 259.331 198.845 242.476 198.395C218.584 197.758 201.504 177.487 201.504 177.487L203.563 212.936C203.563 212.936 226.905 204.471 234.298 212.262C242.316 220.71 230.972 229.807 214.785 228.577C190.117 226.702 147.871 201.159 147.871 201.159C147.871 201.159 109.07 229.549 81.0204 229.902C65.3311 230.099 53.4901 222.539 57.3187 214.182C61.6441 204.743 87.8962 213.32 87.8962 213.32L89.9851 175.932C89.9851 175.932 73.2074 202.531 48.9026 202.414C34.7998 202.347 20.2104 190.197 29.7904 181.172C37.8682 173.561 57.2622 180.181 57.2622 180.181L56.3195 142.19C56.3195 142.19 41.2666 172.103 18.8417 171.604C3.19928 171.256 -4.57971 157.629 2.81676 151.842C10.4487 145.871 27.0787 151.633 27.0787 151.633C27.0787 151.633 15.6406 131.287 33.0315 114.125C58.6548 88.8365 216.788 89.0228 247.254 114.704Z" fill="#9ABAFA"/>
<path d="M169.061 101.775C176.862 101.691 183.118 95.3598 183.036 87.6324C182.954 79.905 176.563 73.7082 168.763 73.7913C160.963 73.8745 154.706 80.2062 154.788 87.9335C154.871 95.6609 161.261 101.858 169.061 101.775Z" fill="black"/>
<path d="M122.409 101.811C130.21 101.728 136.467 95.4933 136.386 87.8854C136.305 80.2774 129.916 74.1774 122.116 74.2606C114.315 74.3437 108.057 80.5786 108.139 88.1865C108.22 95.7944 114.609 101.894 122.409 101.811Z" fill="black"/>
</g>
<defs>
<clipPath id="clip0_43_2">
<rect width="1000" height="254" fill="white"/>
</clipPath>
</defs>
</svg>
