<svg width="418" height="115" viewBox="0 0 418 115" fill="none" xmlns="http://www.w3.org/2000/svg">
<path d="M179.76 86.6C176.24 86.6 173.1 85.82 170.34 84.26C167.62 82.7 165.5 80.4 163.98 77.36C162.46 74.32 161.7 70.62 161.7 66.26C161.7 61.98 162.5 58.32 164.1 55.28C165.7 52.24 167.98 49.9 170.94 48.26C173.94 46.62 177.46 45.8 181.5 45.8C185.98 45.8 189.6 46.62 192.36 48.26C195.12 49.86 197.26 52.42 198.78 55.94L189.24 59.72C188.72 57.68 187.8 56.2 186.48 55.28C185.16 54.36 183.52 53.9 181.56 53.9C179.6 53.9 177.92 54.38 176.52 55.34C175.12 56.26 174.06 57.64 173.34 59.48C172.62 61.28 172.26 63.52 172.26 66.2C172.26 69 172.62 71.34 173.34 73.22C174.1 75.1 175.2 76.5 176.64 77.42C178.12 78.3 179.94 78.74 182.1 78.74C183.26 78.74 184.32 78.6 185.28 78.32C186.24 78.04 187.08 77.64 187.8 77.12C188.52 76.56 189.08 75.88 189.48 75.08C189.88 74.24 190.08 73.26 190.08 72.14V71.54H181.02V64.64H198.84V86H191.82L191.04 76.7L192.72 78.14C191.88 80.86 190.36 82.96 188.16 84.44C186 85.88 183.2 86.6 179.76 86.6ZM217.059 46.4V86H206.739V46.4H217.059ZM259.141 46.4V54.38H246.241V86H235.921V54.38H222.961V46.4H259.141Z" fill="#F9F9F9"/>
<path d="M283.22 46.4C286.46 46.4 289.22 46.92 291.5 47.96C293.78 49 295.52 50.5 296.72 52.46C297.92 54.42 298.52 56.8 298.52 59.6C298.52 62.4 297.92 64.78 296.72 66.74C295.52 68.7 293.78 70.2 291.5 71.24C289.22 72.28 286.46 72.8 283.22 72.8H275.36V86H265.04V46.4H283.22ZM281.6 65.06C283.76 65.06 285.38 64.62 286.46 63.74C287.58 62.82 288.14 61.44 288.14 59.6C288.14 57.76 287.58 56.4 286.46 55.52C285.38 54.6 283.76 54.14 281.6 54.14H275.36V65.06H281.6ZM337.075 86H326.455L323.695 77.06H310.135L307.315 86H296.935L310.855 46.4H323.215L337.075 86ZM312.055 70.04H321.775L316.915 54.02L312.055 70.04ZM352.001 46.4V86H341.681V46.4H352.001ZM377.582 46.4C383.782 46.4 388.522 48.12 391.802 51.56C395.122 55 396.782 59.88 396.782 66.2C396.782 72.52 395.122 77.4 391.802 80.84C388.522 84.28 383.782 86 377.582 86H360.782V46.4H377.582ZM376.562 78.2C379.922 78.2 382.362 77.2 383.882 75.2C385.442 73.16 386.222 70.16 386.222 66.2C386.222 62.24 385.442 59.26 383.882 57.26C382.362 55.22 379.922 54.2 376.562 54.2H371.102V78.2H376.562Z" fill="#9ABAFA"/>
<path fill-rule="evenodd" clip-rule="evenodd" d="M72.7188 0.0122586C96.8241 0.575841 108.091 19.7846 106.197 38.4337C105.063 49.5488 95.2418 52.8363 105.063 60.429C106.178 61.2901 94.1505 77.7866 72.8474 77.3756C51.7119 76.9725 33.9008 61.654 35.5767 60.4877C48.2783 51.6505 38.1178 46.9735 37.5566 37.6118C36.1691 14.4032 51.1623 -0.488703 72.7188 0.0122586Z" fill="#9ABAFA"/>
<path fill-rule="evenodd" clip-rule="evenodd" d="M123.681 57.0505C133.496 65.3731 132.073 75.2114 132.073 75.2114C132.073 75.2114 140.292 71.8366 143.359 75.567C145.756 78.4808 141.361 84.905 134.347 84.5465C122.268 83.9287 116.378 70.5409 116.378 70.5409L117.545 88.7078C117.545 88.7078 126.295 84.9442 130.762 88.8373C135.035 92.5587 129.72 99.3747 121.29 99.1487C109.34 98.8293 100.795 88.6324 100.795 88.6324L101.826 106.465C101.826 106.465 113.504 102.204 117.198 106.124C121.209 110.373 115.537 114.95 107.437 114.329C95.0986 113.386 73.9694 100.541 73.9694 100.541C73.9694 100.541 54.5596 114.821 40.5291 114.998C32.678 115.098 26.7573 111.292 28.6707 107.089C30.8361 102.343 43.9678 106.655 43.9678 106.655L45.013 87.852C45.013 87.852 36.6206 101.231 24.4626 101.171C17.4082 101.137 10.1087 95.0236 14.9024 90.4856C18.9437 86.6588 28.6435 89.9884 28.6435 89.9884L28.1737 70.8753C28.1737 70.8753 20.6426 85.9235 9.42432 85.6704C1.60046 85.4956 -2.28763 78.6435 1.4098 75.7327C5.2264 72.7285 13.5439 75.6272 13.5439 75.6272C13.5439 75.6272 7.82414 65.3912 16.523 56.7582C29.3414 44.0393 108.441 44.1327 123.681 57.0505Z" fill="#9ABAFA"/>
<path d="M84.5659 50.3797C88.4694 50.3381 91.6005 47.1713 91.5593 43.3064C91.5181 39.4415 88.3202 36.3421 84.4167 36.3837C80.5131 36.4253 77.382 39.5921 77.4232 43.457C77.4644 47.3219 80.6623 50.4213 84.5659 50.3797Z" fill="black"/>
<path d="M61.2279 50.4006C65.1315 50.359 68.2631 47.2406 68.2226 43.4355C68.1821 39.6303 64.9848 36.5794 61.0812 36.621C57.1777 36.6626 54.046 39.781 54.0865 43.5861C54.1271 47.3913 57.3244 50.4422 61.2279 50.4006Z" fill="black"/>
</svg>
